<svg width="64" height="64" viewBox="0 0 64 64" fill="none" xmlns="http://www.w3.org/2000/svg">
<path d="M17.9138 17.8244C13.9457 21.7925 7.83383 26.7952 4.75952 29.2566C3.77601 30.0441 3.74114 31.5341 4.69299 32.3595L7.07554 34.9508C7.85023 35.7933 9.17268 35.8151 9.9747 34.9985L36 8.5C36 8.5 33.2685 5.75978 32.451 4.7524C31.6334 3.74503 30.0833 3.75004 29.272 4.76247C26.7855 7.86543 21.8426 13.8957 17.9138 17.8244Z" fill="#3058CD" stroke="#FEFEFE" stroke-width="2" stroke-linejoin="round"/>
<path d="M7.77917 35.5351C6.82732 34.7096 6.86219 33.2196 7.8457 32.4322C10.92 29.9708 17.0319 24.9681 21 21C24.9288 17.0712 29.8717 11.041 32.3582 7.93804C33.1695 6.92561 34.7196 6.92059 35.5371 7.92797C38.0504 11.0247 43.0507 17.0554 47 21C50.9208 24.9161 56.9122 29.8788 59.9807 32.3673C60.9798 33.1776 60.9847 34.7114 59.9907 35.5279C56.9285 38.043 50.9367 43.0633 47 47C43.024 50.976 37.9427 57.0483 35.4533 60.0815C34.6608 61.0472 33.1872 61.0707 32.3694 60.1265L21.0935 47.108C21.0313 47.0361 20.9639 46.9687 20.8921 46.9064L7.77917 35.5351Z" fill="#14131A" stroke="#FEFEFE" stroke-width="2"/>
<path d="M28 34L34 28M28 34L34 40M28 34H6.5M34 28L40 34M34 28V6.5M40 34L34 40M40 34H61.5M34 40V61.5" stroke="#FEFEFE" stroke-width="2"/>
</svg>
