<svg width="64" height="64" viewBox="0 0 64 64" fill="none" xmlns="http://www.w3.org/2000/svg">
<path d="M6 16C6 12.6863 8.68629 10 12 10H18C21.3137 10 24 12.6863 24 16V30H6V16Z" fill="#3058CD" stroke="#FEFEFE" stroke-width="2" stroke-linejoin="round"/>
<path d="M10 16C10 12.6863 12.6863 10 16 10H52C55.3137 10 58 12.6863 58 16V30H10V16Z" fill="#0E0E0E" stroke="#FEFEFE" stroke-width="2" stroke-linejoin="round"/>
<path d="M14 24H39V44L33 50H16C14.8954 50 14 49.1046 14 48V24Z" fill="#0E0E0E"/>
<path d="M39 44L33 50M39 44V24H14V48C14 49.1046 14.8954 50 16 50H33M39 44H35C33.8954 44 33 44.8954 33 46V50" stroke="#FEFEFE" stroke-width="2" stroke-linejoin="round"/>
<circle cx="16" cy="16" r="2" stroke="#FEFEFE" stroke-width="2"/>
<circle cx="23" cy="16" r="2" stroke="#FEFEFE" stroke-width="2"/>
<path d="M31 16L39 16" stroke="#FEFEFE" stroke-width="2" stroke-linecap="round"/>
<path d="M13 24L40 24" stroke="#FEFEFE" stroke-width="2" stroke-linecap="round"/>
<path d="M4 54H12" stroke="#FEFEFE" stroke-width="2" stroke-linecap="round"/>
<path d="M52 54H60" stroke="#FEFEFE" stroke-width="2" stroke-linecap="round"/>
<path d="M43 18C43 16.8954 43.8954 16 45 16H58V30H43V18Z" stroke="#FEFEFE" stroke-width="2" stroke-linejoin="round"/>
<rect x="52" y="19" width="3" height="8" stroke="#FEFEFE" stroke-width="2" stroke-linejoin="round"/>
<rect x="46" y="19" width="3" height="8" stroke="#FEFEFE" stroke-width="2" stroke-linejoin="round"/>
<rect x="6" y="30" width="4" height="24" fill="#3058CD" stroke="#FEFEFE" stroke-width="2" stroke-linejoin="round"/>
<rect x="54" y="30" width="4" height="24" fill="#0E0E0E" stroke="#FEFEFE" stroke-width="2" stroke-linejoin="round"/>
<rect x="19" y="35.0711" width="7.17158" height="7.17158" rx="2" transform="rotate(-45 19 35.0711)" fill="#0E0E0E" stroke="#FEFEFE" stroke-width="2" stroke-linejoin="round"/>
<rect x="24.3539" y="35.0711" width="7.17158" height="7.17158" rx="2" transform="rotate(-45 24.3539 35.0711)" fill="#0E0E0E" stroke="#FEFEFE" stroke-width="2" stroke-linejoin="round"/>
</svg>
