<svg width="150" height="24" viewBox="0 0 150 24" fill="none" xmlns="http://www.w3.org/2000/svg">
<path d="M67.961 3.36727H61.3666V0.987305H77.4139V3.36727H70.7917V22.6607H67.961V3.36727Z" fill="#FEFEFE"/>
<path d="M91.0532 12.4986H82.6275V20.3156H92.0171V22.6607H79.8289V0.987305H91.5354V3.33592H82.6283V10.1849H91.0539L91.0532 12.4986Z" fill="#FEFEFE"/>
<path d="M107.516 22.6608L104.749 17.8694C103.624 16.0351 102.918 14.8466 102.24 13.5888H102.177C101.566 14.843 100.954 16.0002 99.8286 17.8972L97.225 22.6565H94.0104L100.636 11.6903L94.2657 0.983154H97.5121L100.374 6.06419C101.177 7.47964 101.789 8.57338 102.372 9.72985H102.47C103.081 8.44567 103.627 7.44682 104.43 6.06419L107.39 0.983154H110.605L104.011 11.5327L110.762 22.6622H107.519L107.516 22.6608Z" fill="#FEFEFE"/>
<path d="M118.385 3.36727H111.794V0.987305H127.841V3.36727H121.216V22.6607H118.385V3.36727Z" fill="#FEFEFE"/>
<path d="M133.051 0.987305V22.6607H130.252V0.987305H133.051Z" fill="#FEFEFE"/>
<path d="M137.937 0.987305H140.735V20.3156H149.996V22.6607H137.939V0.987305H137.937Z" fill="#FEFEFE"/>
<path d="M0 0.987305H11.6745V3.33592H2.79869V10.5416H11.0032V12.8553H2.79869V22.6642H0V0.987305Z" fill="#FEFEFE"/>
<path d="M18.455 0.98732V13.8191C18.455 18.6762 20.6082 20.7315 23.5048 20.7315C26.7195 20.7315 28.7782 18.6098 28.7782 13.8191V0.98732H31.6086V13.6272C31.6086 20.2842 28.1035 23.0167 23.4041 23.0167C18.9665 23.0167 15.6218 20.4761 15.6218 13.7563V0.98584L18.455 0.98732Z" fill="#FEFEFE"/>
<path d="M36.4629 0.987305H39.2616V20.3156H48.5219V22.6607H36.465L36.4629 0.987305Z" fill="#FEFEFE"/>
<path d="M51.6432 0.987305H54.4398V20.3156H63.7001V22.6607H51.6432V0.987305Z" fill="#FEFEFE"/>
</svg>
