<svg width="180" height="36" viewBox="0 0 180 36" fill="none" xmlns="http://www.w3.org/2000/svg">
<path d="M0.492139 34.3106C0.864878 34.5094 1.28038 34.6146 1.70278 34.6172C2.39455 34.6172 2.79512 34.2884 2.79512 33.8115C2.79512 33.3732 2.5153 33.1198 1.80813 32.8698C0.951982 32.5975 0.426925 32.1969 0.426925 31.5308C0.426925 30.7971 1.10422 30.2466 2.11789 30.2466C2.51629 30.2346 2.91221 30.3137 3.27545 30.4778L3.09067 30.9734C2.78012 30.825 2.43995 30.7486 2.09574 30.75C1.38086 30.75 1.10875 31.1361 1.10875 31.4571C1.10875 31.8955 1.42624 32.1155 2.14883 32.369C3.03408 32.6755 3.48447 33.0607 3.48447 33.7567C3.48447 34.487 2.88503 35.1146 1.65303 35.1146C1.19017 35.1213 0.732316 35.0177 0.317398 34.8124L0.492139 34.3106Z" fill="#FEFEFE"/>
<path d="M12.7399 32.6421C12.7648 32.9699 12.7195 33.2993 12.607 33.6081C12.4945 33.917 12.3173 34.1983 12.0874 34.4332C11.8575 34.6682 11.5802 34.8514 11.2739 34.9707C10.9676 35.09 10.6394 35.1426 10.3111 35.125C9.99485 35.1381 9.67955 35.0847 9.38518 34.9683C9.0908 34.8519 8.82392 34.675 8.60219 34.4491C8.38045 34.2232 8.2085 33.9532 8.09761 33.6567C7.98673 33.3602 7.93933 33.0438 7.95841 32.7278C7.93936 32.4015 7.98892 32.0746 8.10347 31.7684C8.21801 31.4622 8.39493 31.1834 8.62351 30.9497C8.85208 30.716 9.12718 30.5325 9.43074 30.4112C9.73431 30.2898 10.0597 30.2332 10.3864 30.245C10.7032 30.23 11.0196 30.282 11.3148 30.3978C11.6101 30.5135 11.8777 30.6904 12.0999 30.9167C12.3221 31.143 12.4942 31.4137 12.6045 31.7111C12.7148 32.0084 12.7608 32.3257 12.7399 32.6421ZM8.6812 32.7218C8.65777 32.9583 8.68277 33.1971 8.75519 33.4235C8.82761 33.6498 8.94581 33.8589 9.10216 34.0379C9.25851 34.2168 9.44986 34.3619 9.66443 34.4641C9.87899 34.5662 10.1121 34.6234 10.3496 34.6319C10.5921 34.6233 10.8304 34.5643 11.049 34.4587C11.2675 34.3532 11.4616 34.2033 11.6192 34.0187C11.7767 33.8341 11.8942 33.6188 11.9641 33.3864C12.034 33.1539 12.0547 32.9096 12.0251 32.6687C12.0487 32.4318 12.0237 32.1927 11.9515 31.9659C11.8793 31.739 11.7616 31.5294 11.6054 31.3498C11.4492 31.1701 11.2577 31.0244 11.0431 30.9214C10.8285 30.8184 10.5954 30.7604 10.3575 30.7509C10.114 30.7591 9.87465 30.8181 9.65523 30.924C9.43581 31.0299 9.24117 31.1804 9.08335 31.3661C8.92553 31.5517 8.80814 31.7683 8.73889 32.0019C8.66963 32.2355 8.65005 32.4801 8.6812 32.7218Z" fill="#FEFEFE"/>
<path d="M17.4761 30.3315H18.1533V34.5412H20.3856V35.055H17.4744L17.4761 30.3315Z" fill="#FEFEFE"/>
<path d="M25.3921 30.3312V33.1265C25.3921 34.1856 25.9099 34.6317 26.6094 34.6317C27.3851 34.6317 27.8844 34.1702 27.8844 33.1265V30.3312H28.565V33.0846C28.6002 33.3558 28.574 33.6314 28.4881 33.891C28.4021 34.1506 28.2585 34.3875 28.0684 34.5841C27.8783 34.7807 27.6465 34.932 27.3899 35.0266C27.1333 35.1212 26.8586 35.1569 26.5864 35.1308C25.5162 35.1308 24.7107 34.5785 24.7107 33.1145V30.3304L25.3921 30.3312Z" fill="#FEFEFE"/>
<path d="M37.2472 34.9018C36.8054 35.0627 36.3369 35.1385 35.8668 35.1252C35.5354 35.1618 35.2 35.1268 34.8832 35.0225C34.5664 34.9182 34.2758 34.7472 34.0308 34.5209C33.7858 34.2946 33.5925 34.0183 33.4635 33.7108C33.3345 33.4033 33.2727 33.0716 33.2829 32.7382C33.2812 32.3902 33.3528 32.0457 33.4928 31.7271C33.6328 31.4085 33.8381 31.1228 34.0956 30.8887C34.3531 30.6546 34.6572 30.4773 34.9877 30.3682C35.3182 30.2591 35.6681 30.2207 36.0144 30.2555C36.4382 30.2374 36.8608 30.3094 37.2547 30.4669L37.0921 30.9626C36.7575 30.826 36.3987 30.759 36.0374 30.7657C35.7703 30.7373 35.5003 30.7673 35.246 30.8538C34.9918 30.9403 34.759 31.0811 34.5646 31.2664C34.3703 31.4518 34.2187 31.6773 34.1203 31.9271C34.0218 32.177 33.9788 32.4453 33.9944 32.7135C33.9791 32.9764 34.0215 33.2394 34.1186 33.4842C34.2157 33.729 34.3653 33.9497 34.5567 34.1306C34.7481 34.3116 34.9765 34.4484 35.2264 34.5316C35.4763 34.6148 35.7415 34.6425 36.0031 34.6124C36.3806 34.6167 36.7556 34.55 37.1084 34.4155L37.2472 34.9018Z" fill="#FEFEFE"/>
<path d="M42.6265 30.3315V35.0523H41.9493V30.3315H42.6265Z" fill="#FEFEFE"/>
<path d="M52.1315 32.642C52.1563 32.9697 52.111 33.299 51.9985 33.6078C51.886 33.9165 51.7087 34.1978 51.4789 34.4328C51.2491 34.6677 50.972 34.8509 50.6658 34.9703C50.3596 35.0896 50.0317 35.1423 49.7035 35.1248C49.3874 35.1379 49.0721 35.0845 48.7779 34.968C48.4838 34.8515 48.2172 34.6745 47.9958 34.4485C47.7744 34.2226 47.6026 33.9527 47.4921 33.6562C47.3815 33.3598 47.3347 33.0435 47.3541 32.7277C47.3351 32.4013 47.3842 32.0745 47.4987 31.7683C47.6133 31.4621 47.7906 31.1833 48.0192 30.9495C48.2478 30.7158 48.5229 30.5324 48.8264 30.411C49.13 30.2897 49.4554 30.2331 49.7821 30.2448C50.0986 30.2303 50.4145 30.2827 50.7093 30.3987C51.0041 30.5147 51.2714 30.6916 51.4931 30.9179C51.7149 31.1442 51.8864 31.4146 51.9964 31.7117C52.1064 32.0089 52.1524 32.3259 52.1315 32.642ZM48.0731 32.7216C48.0497 32.958 48.0752 33.1968 48.1475 33.4231C48.2199 33.6494 48.3378 33.8584 48.4941 34.0374C48.6504 34.2164 48.8415 34.3614 49.0559 34.4636C49.2704 34.5658 49.5037 34.6231 49.7411 34.6317C49.9836 34.6231 50.2215 34.5641 50.4401 34.4586C50.6586 34.353 50.8531 34.2032 51.0107 34.0186C51.1682 33.834 51.2857 33.6186 51.3556 33.3862C51.4255 33.1538 51.4462 32.9094 51.4166 32.6685C51.4406 32.4316 51.4159 32.1923 51.3439 31.9653C51.2718 31.7383 51.154 31.5285 50.9977 31.3488C50.8415 31.1691 50.6498 31.0233 50.4351 30.9205C50.2203 30.8176 49.9866 30.7598 49.7486 30.7508C49.5053 30.7593 49.2664 30.8185 49.0472 30.9246C48.828 31.0306 48.6334 31.1813 48.4757 31.3669C48.318 31.5524 48.201 31.7687 48.1317 32.0022C48.0623 32.2356 48.0423 32.4801 48.0731 32.7216Z" fill="#FEFEFE"/>
<path d="M56.8673 35.0523V30.3315H57.6056L59.2811 32.7219C59.6309 33.2095 59.9453 33.7214 60.2225 34.2536L60.2371 34.2458C60.1781 33.6009 60.153 32.9534 60.1619 32.3058V30.3315H60.7973V35.0523H60.1121L58.4521 32.6551C58.0924 32.1506 57.765 31.624 57.4718 31.0781L57.4497 31.0858C57.4873 31.6799 57.5027 32.2467 57.5027 33.0335V35.0497L56.8673 35.0523Z" fill="#FEFEFE"/>
<path d="M68.5403 32.839H66.5049V34.5409H68.7703V35.0547H65.8281V30.3339H68.6532V30.8475H66.5049V32.3415H68.5403V32.8449V32.839Z" fill="#FEFEFE"/>
<path d="M73.4117 34.3107C73.7844 34.5094 74.1999 34.6146 74.6223 34.6172C75.3149 34.6172 75.7146 34.2884 75.7146 33.8115C75.7146 33.3732 75.4348 33.1198 74.7276 32.8698C73.8766 32.5975 73.3464 32.1969 73.3464 31.5308C73.3464 30.7971 74.0203 30.2466 75.0374 30.2466C75.4358 30.2346 75.8317 30.3137 76.195 30.4778L76.0102 30.9734C75.6998 30.8244 75.3595 30.748 75.0153 30.75C74.3004 30.75 74.0278 31.1361 74.0278 31.4571C74.0278 31.8955 74.3458 32.1155 75.0684 32.369C75.9536 32.6755 76.404 33.0607 76.404 33.7568C76.404 34.487 75.8045 35.1147 74.5726 35.1147C74.1099 35.1217 73.6522 35.0181 73.2378 34.8124L73.4117 34.3107Z" fill="#FEFEFE"/>
<path d="M86.6897 30.3877C87.1195 30.3248 87.5534 30.2944 87.9878 30.2969C88.5073 30.258 89.0245 30.3967 89.4551 30.69C89.6031 30.8075 89.7217 30.9579 89.8012 31.1292C89.8807 31.3006 89.9191 31.4882 89.9132 31.6771C89.9217 31.8646 89.8899 32.0517 89.82 32.226C89.7502 32.4002 89.6438 32.5575 89.5082 32.6873C89.059 33.0552 88.4875 33.2402 87.9079 33.2053C87.7255 33.2101 87.5432 33.196 87.3636 33.1633V35.0545H86.6897V30.3877ZM87.3636 32.665C87.5479 32.7018 87.7355 32.7182 87.9234 32.7138C88.741 32.7138 89.236 32.3543 89.236 31.7036C89.236 31.0795 88.7477 30.7807 88.0028 30.7807C87.79 30.7761 87.5774 30.7924 87.3678 30.8295V32.6642L87.3636 32.665Z" fill="#FEFEFE"/>
<path d="M95.3549 30.3312V33.1265C95.3549 34.1856 95.8762 34.6317 96.5722 34.6317C97.3479 34.6317 97.8426 34.1702 97.8426 33.1265V30.3312H98.5274V33.0846C98.5627 33.3558 98.5368 33.6315 98.4509 33.8912C98.365 34.1509 98.2217 34.3879 98.0316 34.5845C97.8414 34.7812 97.6093 34.9323 97.3527 35.0269C97.096 35.1215 96.8215 35.157 96.5492 35.1308C95.479 35.1308 94.673 34.5785 94.673 33.1145V30.3304L95.3549 30.3312Z" fill="#FEFEFE"/>
<path d="M103.556 30.3954C103.963 30.327 104.375 30.2941 104.788 30.297C105.292 30.2532 105.796 30.3734 106.226 30.6394C106.364 30.729 106.476 30.8526 106.553 30.9984C106.629 31.1442 106.666 31.3072 106.661 31.4717C106.643 31.7164 106.548 31.949 106.389 32.1356C106.229 32.3222 106.015 32.4528 105.776 32.5084V32.5239C106.065 32.5664 106.33 32.7076 106.526 32.9234C106.723 33.1392 106.838 33.4164 106.854 33.7079C106.854 33.8878 106.815 34.0657 106.738 34.2285C106.662 34.3914 106.55 34.5352 106.411 34.6497C105.876 34.9977 105.238 35.1537 104.603 35.0923C104.253 35.0938 103.903 35.0749 103.555 35.0358V30.3903L103.556 30.3954ZM104.233 32.3286H104.846C105.561 32.3286 105.981 31.9922 105.981 31.5384C105.981 30.9862 105.516 30.7679 104.832 30.7679C104.631 30.7644 104.43 30.7784 104.232 30.8098L104.233 32.3286ZM104.233 34.5905C104.421 34.6136 104.611 34.6225 104.801 34.6171C105.5 34.6171 106.143 34.386 106.143 33.6976C106.143 33.0547 105.53 32.7859 104.792 32.7859H104.236V34.5897L104.233 34.5905Z" fill="#FEFEFE"/>
<path d="M111.62 30.3315H112.298V34.5412H114.533V35.055H111.622L111.62 30.3315Z" fill="#FEFEFE"/>
<path d="M119.817 30.3315V35.0523H119.139V30.3315H119.817Z" fill="#FEFEFE"/>
<path d="M128.504 34.9018C128.062 35.0632 127.594 35.139 127.124 35.1252C126.792 35.1618 126.457 35.1268 126.14 35.0225C125.823 34.9182 125.532 34.7472 125.287 34.5209C125.043 34.2946 124.849 34.0183 124.72 33.7108C124.591 33.4033 124.529 33.0716 124.54 32.7382C124.538 32.3902 124.609 32.0457 124.749 31.7271C124.889 31.4085 125.095 31.1228 125.352 30.8887C125.61 30.6546 125.914 30.4773 126.244 30.3682C126.575 30.2591 126.924 30.2207 127.271 30.2555C127.694 30.2374 128.118 30.3094 128.511 30.4669L128.349 30.9626C128.014 30.8258 127.655 30.7589 127.294 30.7657C127.027 30.7374 126.757 30.7675 126.503 30.854C126.249 30.9406 126.017 31.0814 125.823 31.2668C125.629 31.4522 125.477 31.6777 125.379 31.9276C125.281 32.1774 125.239 32.4456 125.255 32.7135C125.24 32.9764 125.282 33.2394 125.379 33.4842C125.477 33.729 125.626 33.9497 125.818 34.1306C126.009 34.3116 126.237 34.4484 126.487 34.5316C126.737 34.6148 127.002 34.6425 127.264 34.6124C127.64 34.6171 128.013 34.5503 128.365 34.4155L128.504 34.9018Z" fill="#FEFEFE"/>
<path d="M133.887 30.3315V35.0523H133.21V30.3315H133.887Z" fill="#FEFEFE"/>
<path d="M139.917 30.8495H138.324V30.3315H142.198V30.8495H140.598V35.0523H139.913V30.8495H139.917Z" fill="#FEFEFE"/>
<path d="M146.903 33.5695L146.358 35.0523H145.658L147.437 30.3315H148.25L150.035 35.0523H149.312L148.753 33.5695H146.903ZM148.62 33.0926L148.107 31.7348C147.989 31.4283 147.913 31.1484 147.835 30.8727H147.819C147.739 31.1526 147.657 31.4403 147.555 31.7288L147.041 33.0944L148.62 33.0926Z" fill="#FEFEFE"/>
<path d="M154.661 30.3954C155.09 30.3259 155.525 30.293 155.959 30.297C156.494 30.244 157.029 30.3807 157.473 30.6831C157.606 30.7912 157.711 30.9281 157.783 31.0835C157.854 31.2389 157.889 31.4086 157.885 31.5795C157.878 31.8618 157.778 32.1338 157.599 32.3524C157.42 32.5709 157.173 32.7236 156.898 32.7859V32.809C157.1 32.8838 157.278 33.0118 157.414 33.1795C157.55 33.3472 157.637 33.5483 157.668 33.7618C157.761 34.2064 157.896 34.6408 158.073 35.0589H157.374C157.219 34.6963 157.102 34.3184 157.025 33.9313C156.87 33.2806 156.59 33.0349 155.977 33.0127H155.342V35.0589H154.668V30.3946L154.661 30.3954ZM155.335 32.5444H156.028C156.75 32.5444 157.208 32.1891 157.208 31.648C157.208 31.0393 156.72 30.7739 156.009 30.7662C155.784 30.7595 155.56 30.7784 155.34 30.8227L155.335 32.5444Z" fill="#FEFEFE"/>
<path d="M163.368 30.3315V35.0523H162.695V30.3315H163.368Z" fill="#FEFEFE"/>
<path d="M169.251 33.5695L168.706 35.0523H168.007L169.784 30.3315H170.598L172.383 35.0523H171.66L171.1 33.5695H169.251ZM170.969 33.0926L170.455 31.7348C170.349 31.4522 170.259 31.1645 170.183 30.8727H170.167C170.092 31.1526 170.004 31.4403 169.902 31.7288L169.389 33.0944L170.969 33.0926Z" fill="#FEFEFE"/>
<path d="M176.917 34.3106C177.29 34.5094 177.705 34.6146 178.128 34.6172C178.813 34.6172 179.221 34.2884 179.221 33.8115C179.221 33.3732 178.941 33.1198 178.234 32.8698C177.378 32.5975 176.853 32.1969 176.853 31.5308C176.853 30.7971 177.53 30.2466 178.544 30.2466C178.942 30.2346 179.338 30.3137 179.701 30.4777L179.516 30.9734C179.205 30.8249 178.865 30.7485 178.521 30.75C177.806 30.75 177.534 31.1361 177.534 31.4571C177.534 31.8955 177.851 32.1155 178.574 32.369C179.459 32.6755 179.909 33.0607 179.909 33.7567C179.909 34.487 179.31 35.1146 178.079 35.1146C177.616 35.1213 177.158 35.0177 176.743 34.8124L176.917 34.3106Z" fill="#FEFEFE"/>
<path d="M81.5556 3.72177H73.6421V0.865723H92.8995V3.72177H84.9526V26.8746H81.5556V3.72177Z" fill="#FEFEFE"/>
<path d="M109.267 14.6799H99.156V24.0606H110.424V26.8748H95.7975V0.865967H109.846V3.68439H99.1569V11.9034H109.268L109.267 14.6799Z" fill="#FEFEFE"/>
<path d="M129.024 26.8746L125.703 21.1246C124.353 18.9235 123.505 17.4972 122.692 15.9878H122.616C121.883 17.4929 121.149 18.8816 119.798 21.1581L116.673 26.8693H112.816L120.767 13.7096L113.122 0.860596H117.018L120.453 6.95802C121.417 8.65661 122.151 9.96913 122.85 11.3569H122.967C123.701 9.81588 124.356 8.61723 125.32 6.95802L128.872 0.860596H132.73L124.816 13.5204L132.918 26.8762H129.026L129.024 26.8746Z" fill="#FEFEFE"/>
<path d="M142.066 3.72201H134.157V0.865967H153.414V3.72201H145.463V26.8748H142.066V3.72201Z" fill="#FEFEFE"/>
<path d="M159.666 0.865967V26.8748H156.307V0.865967H159.666Z" fill="#FEFEFE"/>
<path d="M165.529 0.865967H168.887V24.0606H180V26.8748H165.531V0.865967H165.529Z" fill="#FEFEFE"/>
<path d="M0 0.86499H14.0098V3.68341H3.35853V12.3305H13.2042V15.107H3.35853V26.878H0V0.86499Z" fill="#FEFEFE"/>
<path d="M22.1467 0.86579V16.2644C22.1467 22.093 24.7307 24.5595 28.2066 24.5595C32.0644 24.5595 34.5349 22.0134 34.5349 16.2644V0.86579H37.9315V16.034C37.9315 24.0227 33.7253 27.3018 28.0858 27.3018C22.7606 27.3018 18.7468 24.2531 18.7468 16.189V0.864014L22.1467 0.86579Z" fill="#FEFEFE"/>
<path d="M43.7567 0.865967H47.1152V24.0606H58.228V26.8748H43.7592L43.7567 0.865967Z" fill="#FEFEFE"/>
<path d="M61.9736 0.865967H65.3297V24.0606H76.4424V26.8748H61.9736V0.865967Z" fill="#FEFEFE"/>
</svg>
