<svg width="180" height="35" viewBox="0 0 180 35" fill="none" xmlns="http://www.w3.org/2000/svg">
<path d="M0.492139 33.4501C0.864878 33.6488 1.28038 33.754 1.70278 33.7566C2.39455 33.7566 2.79512 33.4278 2.79512 32.9509C2.79512 32.5126 2.5153 32.2592 1.80813 32.0092C0.951982 31.7369 0.426925 31.3363 0.426925 30.6702C0.426925 29.9365 1.10422 29.386 2.11789 29.386C2.51629 29.374 2.91221 29.4531 3.27545 29.6172L3.09067 30.1128C2.78012 29.9644 2.43995 29.888 2.09574 29.8894C1.38086 29.8894 1.10875 30.2755 1.10875 30.5965C1.10875 31.0349 1.42624 31.2549 2.14883 31.5084C3.03408 31.8149 3.48447 32.2001 3.48447 32.8962C3.48447 33.6264 2.88503 34.2541 1.65303 34.2541C1.19017 34.2607 0.732316 34.1571 0.317398 33.9518L0.492139 33.4501Z" fill="#FEFEFE"/>
<path d="M12.7399 31.7815C12.7648 32.1093 12.7195 32.4387 12.607 32.7475C12.4945 33.0564 12.3173 33.3377 12.0874 33.5726C11.8575 33.8076 11.5802 33.9908 11.2739 34.1101C10.9676 34.2294 10.6394 34.282 10.3111 34.2644C9.99485 34.2775 9.67955 34.2241 9.38518 34.1077C9.0908 33.9913 8.82392 33.8144 8.60219 33.5885C8.38045 33.3626 8.2085 33.0926 8.09761 32.7961C7.98673 32.4996 7.93933 32.1832 7.95841 31.8672C7.93936 31.5409 7.98892 31.214 8.10347 30.9078C8.21801 30.6016 8.39493 30.3228 8.62351 30.0891C8.85208 29.8554 9.12718 29.6719 9.43074 29.5506C9.73431 29.4292 10.0597 29.3726 10.3864 29.3844C10.7032 29.3694 11.0196 29.4214 11.3148 29.5372C11.6101 29.6529 11.8777 29.8298 12.0999 30.0561C12.3221 30.2824 12.4942 30.5531 12.6045 30.8505C12.7148 31.1478 12.7608 31.4651 12.7399 31.7815ZM8.6812 31.8612C8.65777 32.0977 8.68277 32.3365 8.75519 32.5629C8.82761 32.7892 8.94581 32.9983 9.10216 33.1773C9.25851 33.3562 9.44986 33.5013 9.66443 33.6035C9.87899 33.7056 10.1121 33.7628 10.3496 33.7713C10.5921 33.7627 10.8304 33.7037 11.049 33.5981C11.2675 33.4926 11.4616 33.3427 11.6192 33.1581C11.7767 32.9735 11.8942 32.7582 11.9641 32.5258C12.034 32.2934 12.0547 32.049 12.0251 31.8081C12.0487 31.5712 12.0237 31.3321 11.9515 31.1053C11.8793 30.8784 11.7616 30.6688 11.6054 30.4892C11.4492 30.3096 11.2577 30.1638 11.0431 30.0608C10.8285 29.9578 10.5954 29.8998 10.3575 29.8903C10.114 29.8985 9.87465 29.9575 9.65523 30.0634C9.43581 30.1693 9.24117 30.3198 9.08335 30.5055C8.92553 30.6911 8.80814 30.9077 8.73889 31.1413C8.66963 31.3749 8.65005 31.6195 8.6812 31.8612Z" fill="#FEFEFE"/>
<path d="M17.4761 29.4709H18.1533V33.6806H20.3856V34.1944H17.4744L17.4761 29.4709Z" fill="#FEFEFE"/>
<path d="M25.3921 29.4706V32.2659C25.3921 33.325 25.9099 33.7711 26.6094 33.7711C27.3851 33.7711 27.8844 33.3096 27.8844 32.2659V29.4706H28.565V32.224C28.6002 32.4952 28.574 32.7708 28.4881 33.0304C28.4021 33.29 28.2585 33.5269 28.0684 33.7235C27.8783 33.9201 27.6465 34.0714 27.3899 34.166C27.1333 34.2607 26.8586 34.2963 26.5864 34.2702C25.5162 34.2702 24.7107 33.7179 24.7107 32.2539V29.4698L25.3921 29.4706Z" fill="#FEFEFE"/>
<path d="M37.2472 34.0412C36.8054 34.2021 36.3369 34.278 35.8668 34.2646C35.5354 34.3012 35.2 34.2662 34.8832 34.1619C34.5664 34.0576 34.2758 33.8866 34.0308 33.6603C33.7858 33.434 33.5925 33.1577 33.4635 32.8502C33.3345 32.5427 33.2727 32.211 33.2829 31.8776C33.2812 31.5296 33.3528 31.1851 33.4928 30.8665C33.6328 30.5479 33.8381 30.2622 34.0956 30.0281C34.3531 29.794 34.6572 29.6167 34.9877 29.5076C35.3182 29.3985 35.6681 29.3601 36.0144 29.3949C36.4382 29.3768 36.8608 29.4488 37.2547 29.6063L37.0921 30.102C36.7575 29.9654 36.3987 29.8985 36.0374 29.9051C35.7703 29.8767 35.5003 29.9068 35.246 29.9932C34.9918 30.0797 34.759 30.2205 34.5646 30.4058C34.3703 30.5912 34.2187 30.8167 34.1203 31.0665C34.0218 31.3164 33.9788 31.5847 33.9944 31.8529C33.9791 32.1158 34.0215 32.3788 34.1186 32.6236C34.2157 32.8684 34.3653 33.0891 34.5567 33.27C34.7481 33.451 34.9765 33.5878 35.2264 33.671C35.4763 33.7543 35.7415 33.7819 36.0031 33.7518C36.3806 33.7562 36.7556 33.6894 37.1084 33.5549L37.2472 34.0412Z" fill="#FEFEFE"/>
<path d="M42.6265 29.4709V34.1917H41.9493V29.4709H42.6265Z" fill="#FEFEFE"/>
<path d="M52.1315 31.7814C52.1563 32.1091 52.111 32.4384 51.9985 32.7472C51.886 33.0559 51.7087 33.3372 51.4789 33.5722C51.2491 33.8071 50.972 33.9903 50.6658 34.1097C50.3596 34.229 50.0317 34.2817 49.7035 34.2642C49.3874 34.2773 49.0721 34.2239 48.7779 34.1074C48.4838 33.9909 48.2172 33.8139 47.9958 33.5879C47.7744 33.362 47.6026 33.0921 47.4921 32.7957C47.3815 32.4992 47.3347 32.1829 47.3541 31.8671C47.3351 31.5407 47.3842 31.2139 47.4987 30.9077C47.6133 30.6015 47.7906 30.3227 48.0192 30.089C48.2478 29.8552 48.5229 29.6718 48.8264 29.5504C49.13 29.4291 49.4554 29.3725 49.7821 29.3842C50.0986 29.3697 50.4145 29.4221 50.7093 29.5381C51.0041 29.6541 51.2714 29.831 51.4931 30.0573C51.7149 30.2836 51.8864 30.554 51.9964 30.8511C52.1064 31.1483 52.1524 31.4653 52.1315 31.7814ZM48.0731 31.861C48.0497 32.0974 48.0752 32.3362 48.1475 32.5625C48.2199 32.7888 48.3378 32.9978 48.4941 33.1768C48.6504 33.3558 48.8415 33.5008 49.0559 33.603C49.2704 33.7052 49.5037 33.7625 49.7411 33.7711C49.9836 33.7625 50.2215 33.7035 50.4401 33.598C50.6586 33.4924 50.8531 33.3426 51.0107 33.158C51.1682 32.9734 51.2857 32.758 51.3556 32.5256C51.4255 32.2932 51.4462 32.0488 51.4166 31.8079C51.4406 31.571 51.4159 31.3317 51.3439 31.1047C51.2718 30.8777 51.154 30.6679 50.9977 30.4882C50.8415 30.3085 50.6498 30.1627 50.4351 30.0599C50.2203 29.957 49.9866 29.8993 49.7486 29.8902C49.5053 29.8987 49.2664 29.9579 49.0472 30.064C48.828 30.17 48.6334 30.3207 48.4757 30.5063C48.318 30.6918 48.201 30.9081 48.1317 31.1416C48.0623 31.375 48.0423 31.6195 48.0731 31.861Z" fill="#FEFEFE"/>
<path d="M56.8673 34.1917V29.4709H57.6056L59.2811 31.8613C59.6309 32.3489 59.9453 32.8608 60.2225 33.393L60.2371 33.3852C60.1781 32.7403 60.153 32.0928 60.1619 31.4452V29.4709H60.7973V34.1917H60.1121L58.4521 31.7945C58.0924 31.29 57.765 30.7634 57.4718 30.2176L57.4497 30.2252C57.4873 30.8193 57.5027 31.3861 57.5027 32.1729V34.1891L56.8673 34.1917Z" fill="#FEFEFE"/>
<path d="M68.5403 31.9784H66.5049V33.6803H68.7703V34.1941H65.8281V29.4733H68.6532V29.9869H66.5049V31.4809H68.5403V31.9843V31.9784Z" fill="#FEFEFE"/>
<path d="M73.4117 33.4501C73.7844 33.6488 74.1999 33.754 74.6223 33.7566C75.3149 33.7566 75.7146 33.4278 75.7146 32.9509C75.7146 32.5126 75.4348 32.2592 74.7276 32.0092C73.8766 31.7369 73.3464 31.3363 73.3464 30.6702C73.3464 29.9365 74.0203 29.386 75.0374 29.386C75.4358 29.374 75.8317 29.4531 76.195 29.6172L76.0102 30.1129C75.6998 29.9638 75.3595 29.8874 75.0153 29.8894C74.3004 29.8894 74.0278 30.2755 74.0278 30.5965C74.0278 31.0349 74.3458 31.255 75.0684 31.5084C75.9536 31.8149 76.404 32.2001 76.404 32.8962C76.404 33.6265 75.8045 34.2541 74.5726 34.2541C74.1099 34.2611 73.6522 34.1575 73.2378 33.9518L73.4117 33.4501Z" fill="#FEFEFE"/>
<path d="M86.6897 29.5272C87.1195 29.4642 87.5534 29.4338 87.9878 29.4363C88.5073 29.3974 89.0245 29.5361 89.4551 29.8294C89.6031 29.9469 89.7217 30.0973 89.8012 30.2687C89.8807 30.44 89.9191 30.6276 89.9132 30.8165C89.9217 31.004 89.8899 31.1911 89.82 31.3654C89.7502 31.5396 89.6438 31.6969 89.5082 31.8267C89.059 32.1946 88.4875 32.3796 87.9079 32.3447C87.7255 32.3495 87.5432 32.3354 87.3636 32.3027V34.1939H86.6897V29.5272ZM87.3636 31.8044C87.5479 31.8412 87.7355 31.8576 87.9234 31.8532C88.741 31.8532 89.236 31.4937 89.236 30.843C89.236 30.2189 88.7477 29.9201 88.0028 29.9201C87.79 29.9155 87.5774 29.9318 87.3678 29.9689V31.8036L87.3636 31.8044Z" fill="#FEFEFE"/>
<path d="M95.3549 29.4706V32.2659C95.3549 33.325 95.8762 33.7711 96.5722 33.7711C97.3479 33.7711 97.8426 33.3096 97.8426 32.2659V29.4706H98.5274V32.224C98.5627 32.4952 98.5368 32.7709 98.4509 33.0306C98.365 33.2903 98.2217 33.5273 98.0316 33.7239C97.8414 33.9206 97.6093 34.0718 97.3527 34.1663C97.096 34.2609 96.8215 34.2965 96.5492 34.2702C95.479 34.2702 94.673 33.7179 94.673 32.2539V29.4698L95.3549 29.4706Z" fill="#FEFEFE"/>
<path d="M103.556 29.5348C103.963 29.4664 104.375 29.4335 104.788 29.4364C105.292 29.3926 105.796 29.5128 106.226 29.7789C106.364 29.8684 106.476 29.9921 106.553 30.1378C106.629 30.2836 106.666 30.4466 106.661 30.6111C106.643 30.8558 106.548 31.0884 106.389 31.275C106.229 31.4616 106.015 31.5923 105.776 31.6478V31.6633C106.065 31.7058 106.33 31.847 106.526 32.0628C106.723 32.2787 106.838 32.5558 106.854 32.8473C106.854 33.0272 106.815 33.2051 106.738 33.3679C106.662 33.5308 106.55 33.6746 106.411 33.7891C105.876 34.1371 105.238 34.2931 104.603 34.2317C104.253 34.2332 103.903 34.2143 103.555 34.1752V29.5297L103.556 29.5348ZM104.233 31.468H104.846C105.561 31.468 105.981 31.1316 105.981 30.6778C105.981 30.1256 105.516 29.9073 104.832 29.9073C104.631 29.9038 104.43 29.9178 104.232 29.9492L104.233 31.468ZM104.233 33.73C104.421 33.753 104.611 33.7619 104.801 33.7565C105.5 33.7565 106.143 33.5254 106.143 32.837C106.143 32.1941 105.53 31.9253 104.792 31.9253H104.236V33.7291L104.233 33.73Z" fill="#FEFEFE"/>
<path d="M111.62 29.4709H112.298V33.6806H114.533V34.1944H111.622L111.62 29.4709Z" fill="#FEFEFE"/>
<path d="M119.817 29.4709V34.1917H119.139V29.4709H119.817Z" fill="#FEFEFE"/>
<path d="M128.504 34.0412C128.062 34.2026 127.594 34.2784 127.124 34.2646C126.792 34.3012 126.457 34.2662 126.14 34.1619C125.823 34.0576 125.532 33.8866 125.287 33.6603C125.043 33.434 124.849 33.1577 124.72 32.8502C124.591 32.5427 124.529 32.211 124.54 31.8776C124.538 31.5296 124.609 31.1851 124.749 30.8665C124.889 30.5479 125.095 30.2622 125.352 30.0281C125.61 29.794 125.914 29.6167 126.244 29.5076C126.575 29.3985 126.924 29.3601 127.271 29.3949C127.694 29.3768 128.118 29.4488 128.511 29.6063L128.349 30.102C128.014 29.9653 127.655 29.8983 127.294 29.9051C127.027 29.8768 126.757 29.9069 126.503 29.9934C126.249 30.08 126.017 30.2208 125.823 30.4062C125.629 30.5916 125.477 30.8171 125.379 31.067C125.281 31.3168 125.239 31.585 125.255 31.8529C125.24 32.1158 125.282 32.3788 125.379 32.6236C125.477 32.8684 125.626 33.0891 125.818 33.27C126.009 33.451 126.237 33.5878 126.487 33.671C126.737 33.7543 127.002 33.7819 127.264 33.7518C127.64 33.7565 128.013 33.6897 128.365 33.5549L128.504 34.0412Z" fill="#FEFEFE"/>
<path d="M133.887 29.4709V34.1917H133.21V29.4709H133.887Z" fill="#FEFEFE"/>
<path d="M139.917 29.9889H138.324V29.4709H142.198V29.9889H140.598V34.1917H139.913V29.9889H139.917Z" fill="#FEFEFE"/>
<path d="M146.903 32.7089L146.358 34.1917H145.658L147.437 29.4709H148.25L150.035 34.1917H149.312L148.753 32.7089H146.903ZM148.62 32.232L148.107 30.8742C147.989 30.5677 147.913 30.2878 147.835 30.0121H147.819C147.739 30.292 147.657 30.5797 147.555 30.8682L147.041 32.2338L148.62 32.232Z" fill="#FEFEFE"/>
<path d="M154.661 29.5348C155.09 29.4653 155.525 29.4324 155.959 29.4364C156.494 29.3834 157.029 29.5202 157.473 29.8225C157.606 29.9306 157.711 30.0675 157.783 30.2229C157.854 30.3783 157.889 30.548 157.885 30.7189C157.878 31.0012 157.778 31.2732 157.599 31.4918C157.42 31.7103 157.173 31.863 156.898 31.9253V31.9484C157.1 32.0232 157.278 32.1512 157.414 32.3189C157.55 32.4866 157.637 32.6877 157.668 32.9012C157.761 33.3458 157.896 33.7802 158.073 34.1983H157.374C157.219 33.8357 157.102 33.4578 157.025 33.0707C156.87 32.42 156.59 32.1743 155.977 32.1521H155.342V34.1983H154.668V29.534L154.661 29.5348ZM155.335 31.6838H156.028C156.75 31.6838 157.208 31.3285 157.208 30.7874C157.208 30.1787 156.72 29.9133 156.009 29.9056C155.784 29.899 155.56 29.9178 155.34 29.9621L155.335 31.6838Z" fill="#FEFEFE"/>
<path d="M163.368 29.4709V34.1917H162.695V29.4709H163.368Z" fill="#FEFEFE"/>
<path d="M169.251 32.7089L168.706 34.1917H168.007L169.784 29.4709H170.598L172.383 34.1917H171.66L171.1 32.7089H169.251ZM170.969 32.232L170.455 30.8742C170.349 30.5916 170.259 30.3039 170.183 30.0121H170.167C170.092 30.292 170.004 30.5797 169.902 30.8682L169.389 32.2338L170.969 32.232Z" fill="#FEFEFE"/>
<path d="M176.917 33.4501C177.29 33.6488 177.705 33.754 178.128 33.7566C178.813 33.7566 179.221 33.4278 179.221 32.9509C179.221 32.5126 178.941 32.2592 178.234 32.0092C177.378 31.7369 176.853 31.3363 176.853 30.6702C176.853 29.9365 177.53 29.386 178.544 29.386C178.942 29.374 179.338 29.4531 179.701 29.6171L179.516 30.1128C179.205 29.9643 178.865 29.8879 178.521 29.8894C177.806 29.8894 177.534 30.2755 177.534 30.5965C177.534 31.0349 177.851 31.2549 178.574 31.5084C179.459 31.8149 179.909 32.2001 179.909 32.8961C179.909 33.6264 179.31 34.254 178.079 34.254C177.616 34.2607 177.158 34.1571 176.743 33.9518L176.917 33.4501Z" fill="#FEFEFE"/>
<path d="M81.5556 2.86117H73.6421V0.00512695H92.8995V2.86117H84.9526V26.014H81.5556V2.86117Z" fill="#FEFEFE"/>
<path d="M109.267 13.8193H99.156V23.2H110.424V26.0142H95.7975V0.00537109H109.846V2.82379H99.1569V11.0428H109.268L109.267 13.8193Z" fill="#FEFEFE"/>
<path d="M129.024 26.014L125.703 20.264C124.353 18.0629 123.505 16.6366 122.692 15.1272H122.616C121.883 16.6323 121.149 18.021 119.798 20.2975L116.673 26.0087H112.816L120.767 12.849L113.122 0H117.018L120.453 6.09742C121.417 7.79601 122.151 9.10853 122.85 10.4963H122.967C123.701 8.95529 124.356 7.75663 125.32 6.09742L128.872 0H132.73L124.816 12.6598L132.918 26.0156H129.026L129.024 26.014Z" fill="#FEFEFE"/>
<path d="M142.066 2.86142H134.157V0.00537109H153.414V2.86142H145.463V26.0142H142.066V2.86142Z" fill="#FEFEFE"/>
<path d="M159.666 0.00537109V26.0142H156.307V0.00537109H159.666Z" fill="#FEFEFE"/>
<path d="M165.529 0.00537109H168.887V23.2H180V26.0142H165.531V0.00537109H165.529Z" fill="#FEFEFE"/>
<path d="M0 0.00439453H14.0098V2.82282H3.35853V11.4699H13.2042V14.2464H3.35853V26.0174H0V0.00439453Z" fill="#FEFEFE"/>
<path d="M22.1467 0.00519464V15.4038C22.1467 21.2324 24.7307 23.6989 28.2066 23.6989C32.0644 23.6989 34.5349 21.1528 34.5349 15.4038V0.00519464H37.9315V15.1734C37.9315 23.1621 33.7253 26.4412 28.0858 26.4412C22.7606 26.4412 18.7468 23.3925 18.7468 15.3284V0.00341797L22.1467 0.00519464Z" fill="#FEFEFE"/>
<path d="M43.7567 0.00537109H47.1152V23.2H58.228V26.0142H43.7592L43.7567 0.00537109Z" fill="#FEFEFE"/>
<path d="M61.9736 0.00537109H65.3297V23.2H76.4424V26.0142H61.9736V0.00537109Z" fill="#FEFEFE"/>
</svg>
