<svg width="24" height="25" viewBox="0 0 24 25" fill="none" xmlns="http://www.w3.org/2000/svg">
<path d="M12 6.27881C11.2583 6.27881 10.5333 6.49874 9.91661 6.9108C9.29993 7.32285 8.81928 7.90852 8.53545 8.59375C8.25162 9.27897 8.17736 10.033 8.32205 10.7604C8.46675 11.4878 8.8239 12.156 9.34835 12.6805C9.8728 13.2049 10.541 13.5621 11.2684 13.7068C11.9958 13.8514 12.7498 13.7772 13.4351 13.4934C14.1203 13.2095 14.706 12.7289 15.118 12.1122C15.5301 11.4955 15.75 10.7705 15.75 10.0288C15.75 9.03425 15.3549 8.08042 14.6517 7.37716C13.9484 6.6739 12.9946 6.27881 12 6.27881ZM12 12.2788C11.555 12.2788 11.12 12.1468 10.75 11.8996C10.38 11.6524 10.0916 11.301 9.92127 10.8898C9.75097 10.4787 9.70642 10.0263 9.79323 9.58986C9.88005 9.1534 10.0943 8.75249 10.409 8.43782C10.7237 8.12315 11.1246 7.90886 11.561 7.82204C11.9975 7.73522 12.4499 7.77978 12.861 7.95008C13.2722 8.12038 13.6236 8.40876 13.8708 8.77878C14.118 9.14879 14.25 9.5838 14.25 10.0288C14.25 10.6255 14.0129 11.1978 13.591 11.6198C13.169 12.0418 12.5967 12.2788 12 12.2788ZM12 1.77881C9.81273 1.78129 7.71575 2.65128 6.16911 4.19792C4.62247 5.74456 3.75248 7.84153 3.75 10.0288C3.75 12.9726 5.11031 16.0926 7.6875 19.0522C8.84552 20.3897 10.1489 21.5939 11.5734 22.6429C11.6995 22.7312 11.8498 22.7786 12.0037 22.7786C12.1577 22.7786 12.308 22.7312 12.4341 22.6429C13.856 21.5935 15.1568 20.3892 16.3125 19.0522C18.8859 16.0926 20.25 12.9726 20.25 10.0288C20.2475 7.84153 19.3775 5.74456 17.8309 4.19792C16.2843 2.65128 14.1873 1.78129 12 1.77881ZM12 21.0913C10.4503 19.8726 5.25 15.396 5.25 10.0288C5.25 8.2386 5.96116 6.52171 7.22703 5.25584C8.4929 3.98997 10.2098 3.27881 12 3.27881C13.7902 3.27881 15.5071 3.98997 16.773 5.25584C18.0388 6.52171 18.75 8.2386 18.75 10.0288C18.75 15.3941 13.5497 19.8726 12 21.0913Z" fill="#3058CD"/>
</svg>
