<svg width="24" height="25" viewBox="0 0 24 25" fill="none" xmlns="http://www.w3.org/2000/svg">
<path d="M20.8472 15.1345L16.4306 13.1554L16.4184 13.1498C16.1892 13.0517 15.939 13.0124 15.6907 13.0353C15.4424 13.0582 15.2037 13.1427 14.9963 13.2811C14.9718 13.2972 14.9484 13.3147 14.9259 13.3336L12.6441 15.2789C11.1984 14.5767 9.70595 13.0954 9.00376 11.6686L10.9519 9.35199C10.9706 9.32855 10.9884 9.30511 11.0053 9.2798C11.1407 9.0729 11.2229 8.83573 11.2445 8.5894C11.2661 8.34307 11.2264 8.09523 11.1291 7.86793V7.85668L9.14438 3.43261C9.0157 3.13567 8.79444 2.88831 8.51362 2.72746C8.2328 2.56661 7.9075 2.50089 7.58626 2.54011C6.31592 2.70728 5.14986 3.33115 4.30588 4.2952C3.4619 5.25926 2.99771 6.49757 3.00001 7.77886C3.00001 15.2226 9.05626 21.2789 16.5 21.2789C17.7813 21.2812 19.0196 20.817 19.9837 19.973C20.9477 19.129 21.5716 17.963 21.7388 16.6926C21.7781 16.3715 21.7125 16.0463 21.5518 15.7655C21.3911 15.4847 21.144 15.2633 20.8472 15.1345ZM16.5 19.7789C13.3185 19.7754 10.2682 18.51 8.01856 16.2603C5.76888 14.0106 4.50348 10.9604 4.50001 7.77886C4.49648 6.86338 4.82631 5.97792 5.42789 5.28784C6.02947 4.59775 6.86167 4.15024 7.76907 4.02886C7.7687 4.0326 7.7687 4.03637 7.76907 4.04011L9.73782 8.44636L7.80001 10.7657C7.78034 10.7884 7.76247 10.8125 7.74657 10.8379C7.60549 11.0544 7.52273 11.3037 7.5063 11.5615C7.48988 11.8194 7.54035 12.0772 7.65282 12.3098C8.5022 14.047 10.2525 15.7842 12.0084 16.6326C12.2428 16.744 12.502 16.7928 12.7608 16.774C13.0196 16.7553 13.2692 16.6697 13.485 16.5257C13.5091 16.5095 13.5322 16.492 13.5544 16.4732L15.8334 14.5289L20.2397 16.5023C20.2397 16.5023 20.2472 16.5023 20.25 16.5023C20.1301 17.411 19.6833 18.2449 18.9931 18.8479C18.3028 19.451 17.4166 19.782 16.5 19.7789Z" fill="#3058CD"/>
</svg>
