<svg width="24" height="25" viewBox="0 0 24 25" fill="none" xmlns="http://www.w3.org/2000/svg">
<path d="M17.5857 13.8576L14.5857 12.3576C14.4676 12.2987 14.3361 12.2721 14.2044 12.2803C14.0727 12.2885 13.9455 12.3313 13.8357 12.4044L12.4585 13.3232C11.8263 12.9756 11.306 12.4554 10.9585 11.8232L11.8772 10.446C11.9503 10.3362 11.9932 10.209 12.0014 10.0773C12.0096 9.94561 11.983 9.81408 11.9241 9.696L10.4241 6.696C10.3619 6.57044 10.2658 6.46481 10.1467 6.39107C10.0276 6.31733 9.89016 6.27845 9.75005 6.27881C8.75549 6.27881 7.80166 6.6739 7.0984 7.37716C6.39514 8.08042 6.00005 9.03425 6.00005 10.0288C6.00253 12.2161 6.87252 14.3131 8.41916 15.8597C9.9658 17.4063 12.0628 18.2763 14.2501 18.2788C14.7425 18.2788 15.2301 18.1818 15.6851 17.9934C16.1401 17.8049 16.5535 17.5287 16.9017 17.1805C17.2499 16.8322 17.5261 16.4188 17.7146 15.9639C17.9031 15.5089 18.0001 15.0213 18.0001 14.5288C18.0002 14.3895 17.9614 14.2529 17.8882 14.1343C17.8151 14.0157 17.7103 13.9199 17.5857 13.8576ZM14.2501 16.7788C12.4605 16.7768 10.7447 16.065 9.47927 14.7996C8.21383 13.5341 7.50204 11.8184 7.50005 10.0288C7.49991 9.50861 7.68002 9.00443 8.00974 8.60207C8.33945 8.19971 8.79841 7.92402 9.30849 7.82193L10.3847 9.97818L9.4688 11.3413C9.40036 11.444 9.3583 11.5619 9.34636 11.6848C9.33443 11.8076 9.35297 11.9314 9.40036 12.0454C9.93698 13.3207 10.9516 14.3353 12.2269 14.8719C12.3412 14.9214 12.466 14.9417 12.5901 14.9309C12.7141 14.9201 12.8336 14.8786 12.9376 14.8101L14.3072 13.8969L16.4635 14.9732C16.3606 15.4839 16.0837 15.943 15.6801 16.2723C15.2764 16.6016 14.771 16.7806 14.2501 16.7788ZM12.0001 2.52881C10.3167 2.52844 8.66201 2.96389 7.19691 3.79277C5.73182 4.62166 4.50628 5.81573 3.63959 7.25878C2.77289 8.70182 2.29457 10.3447 2.25117 12.0274C2.20777 13.7102 2.60077 15.3755 3.39193 16.8613L2.32787 20.0535C2.23973 20.3178 2.22693 20.6014 2.29093 20.8726C2.35492 21.1437 2.49316 21.3917 2.69016 21.5887C2.88717 21.7857 3.13514 21.9239 3.4063 21.9879C3.67745 22.0519 3.96107 22.0391 4.22537 21.951L7.41755 20.8869C8.72515 21.5824 10.174 21.9709 11.6541 22.0228C13.1343 22.0747 14.6068 21.7888 15.9599 21.1867C17.3131 20.5846 18.5112 19.6821 19.4635 18.5478C20.4158 17.4134 21.0971 16.0771 21.4558 14.6401C21.8145 13.2032 21.8411 11.7034 21.5336 10.2546C21.2261 8.80581 20.5926 7.44612 19.6812 6.27873C18.7698 5.11134 17.6044 4.16692 16.2735 3.51717C14.9426 2.86742 13.4811 2.52942 12.0001 2.52881ZM12.0001 20.5288C10.5497 20.5298 9.12483 20.1479 7.86943 19.4216C7.77751 19.3683 7.67532 19.3352 7.56962 19.3243C7.46391 19.3135 7.35712 19.3253 7.2563 19.3588L3.75005 20.5288L4.91912 17.0226C4.95281 16.9218 4.96473 16.815 4.95406 16.7093C4.94339 16.6036 4.91039 16.5014 4.85724 16.4094C3.94784 14.8372 3.58272 13.0087 3.81852 11.2078C4.05432 9.40682 4.87786 7.73401 6.16139 6.44886C7.44491 5.16372 9.11667 4.33806 10.9173 4.09999C12.718 3.86191 14.5469 4.22472 16.1203 5.13214C17.6937 6.03955 18.9237 7.44085 19.6194 9.11864C20.3152 10.7964 20.4378 12.6569 19.9683 14.4115C19.4987 16.1661 18.4633 17.7167 17.0226 18.8228C15.5818 19.9288 13.8164 20.5285 12.0001 20.5288Z" fill="#3058CD"/>
</svg>
