<svg width="64" height="64" viewBox="0 0 64 64" fill="none" xmlns="http://www.w3.org/2000/svg">
<path d="M4 11C4 7.68629 6.68629 5 10 5H14C17.3137 5 20 7.68629 20 11V17.5217V35C20 38.3137 17.3137 41 14 41H10C6.68629 41 4 38.3137 4 35V11Z" fill="#3058CD" stroke="#FEFEFE" stroke-width="2"/>
<path d="M8 11C8 7.68629 10.6863 5 14 5H54C57.3137 5 60 7.68629 60 11V17.5217V35C60 38.3137 57.3137 41 54 41H14C10.6863 41 8 38.3137 8 35V11Z" fill="#14131A" stroke="#FEFEFE" stroke-width="2"/>
<path d="M39 59L41 44H49L51 59L45 55L39 59Z" fill="#14131A" stroke="#FEFEFE" stroke-width="2" stroke-linecap="round" stroke-linejoin="round"/>
<circle cx="45" cy="40" r="8" fill="#14131A" stroke="#FEFEFE" stroke-width="2"/>
<path d="M17 13H51" stroke="#FEFEFE" stroke-width="2" stroke-linecap="round"/>
<path d="M17 19H51" stroke="#FEFEFE" stroke-width="2" stroke-linecap="round"/>
<path d="M17 25H51" stroke="#FEFEFE" stroke-width="2" stroke-linecap="round"/>
<path d="M17 33L21 31L25 33L29 31L33 33" stroke="#FEFEFE" stroke-width="2" stroke-linecap="round" stroke-linejoin="round"/>
</svg>
