<svg width="64" height="64" viewBox="0 0 64 64" fill="none" xmlns="http://www.w3.org/2000/svg">
<path d="M19 14L19 18L9 18L9 14L19 14Z" fill="#3058CD" stroke="#FEFEFE" stroke-width="2" stroke-linejoin="round"/>
<path d="M55 14L55 18L45 18L45 14L55 14Z" fill="#3058CD" stroke="#FEFEFE" stroke-width="2" stroke-linejoin="round"/>
<path d="M37 6L37 10L27 10L27 6L37 6Z" fill="#3058CD" stroke="#FEFEFE" stroke-width="2" stroke-linejoin="round"/>
<path d="M11 58L17 58L17 44.8636L17 24L11 24L11 58Z" stroke="#FEFEFE" stroke-width="2" stroke-linejoin="round"/>
<path d="M47 58L53 58L53 44.8636L53 24L47 24L47 58Z" stroke="#FEFEFE" stroke-width="2" stroke-linejoin="round"/>
<path d="M29 50L35 50L35 36.8636L35 16L29 16L29 50Z" stroke="#FEFEFE" stroke-width="2" stroke-linejoin="round"/>
<path d="M9 35L19 35L19 33.4545L19 31L9 31L9 35Z" fill="#14131A" stroke="#FEFEFE" stroke-width="2" stroke-linejoin="round"/>
<path d="M45 35L55 35L55 33.4545L55 31L45 31L45 35Z" fill="#14131A" stroke="#FEFEFE" stroke-width="2" stroke-linejoin="round"/>
<path d="M27 27L37 27L37 25.4545L37 23L27 23L27 27Z" fill="#14131A" stroke="#FEFEFE" stroke-width="2" stroke-linejoin="round"/>
<path d="M9 24L19 24L19 21.6818L19 18L9 18L9 24Z" stroke="#FEFEFE" stroke-width="2" stroke-linejoin="round"/>
<path d="M45 24L55 24L55 21.6818L55 18L45 18L45 24Z" stroke="#FEFEFE" stroke-width="2" stroke-linejoin="round"/>
<path d="M27 16L37 16L37 13.6818L37 10L27 10L27 16Z" stroke="#FEFEFE" stroke-width="2" stroke-linejoin="round"/>
</svg>
